<?xml version="1.0"?>

<svg version="1.0" xmlns="http://www.w3.org/2000/svg" width="932.000000pt" height="404.000000pt" viewBox="0 0 932.000000 404.000000" preserveAspectRatio="xMidYMid meet">
<metadata>
Created by potrace 1.16, written by Peter Selinger 2001-2019
</metadata>
<g transform="translate(0.000000,404.000000) scale(0.100000,-0.100000)" fill="#000000" stroke="none">
<path d="M6675 3504 c-22 -8 -67 -19 -101 -23 -90 -13 -385 -155 -549 -264&#xA;-33 -22 -127 -107 -210 -188 -219 -215 -231 -224 -309 -239 -51 -9 -76 -9&#xA;-118 0 -80 18 -106 32 -188 99 -163 132 -385 288 -475 333 -63 32 -229 90&#xA;-320 112 -103 26 -307 38 -500 31 -153 -6 -181 -10 -280 -40 -60 -18 -126 -36&#xA;-145 -40 -163 -29 -480 -239 -673 -446 -137 -147 -270 -239 -346 -239 -29 0&#xA;-130 58 -201 114 -268 214 -445 328 -620 399 -64 26 -123 47 -131 47 -9 0 -44&#xA;9 -78 20 -85 27 -431 34 -456 9 -14 -14 -15 -35 -5 -185 5 -93 19 -349 30&#xA;-569 20 -409 34 -629 50 -815 5 -58 14 -240 20 -405 6 -165 15 -309 19 -320 5&#xA;-12 46 -39 97 -64 119 -59 187 -103 253 -165 323 -301 832 -456 1278 -390 281&#xA;41 538 138 710 266 125 93 284 227 393 330 136 130 149 138 231 138 83 0 146&#xA;-30 274 -129 250 -194 549 -370 695 -410 95 -27 339 -53 495 -55 164 -1 367&#xA;33 495 84 52 21 122 48 155 61 86 33 157 77 389 244 28 19 97 81 156 138 58&#xA;57 130 122 160 144 64 48 169 88 209 80 64 -13 145 -64 306 -193 192 -154 260&#xA;-197 395 -253 52 -21 121 -51 154 -65 73 -33 147 -50 301 -70 161 -21 294 -21&#xA;302 0 5 13 -6 246 -37 788 -6 93 -17 230 -25 305 -14 132 -19 221 -30 461 -3&#xA;63 -12 249 -20 413 -9 164 -14 306 -11 315 8 26 -3 35 -78 70 -83 39 -137 76&#xA;-281 197 -131 110 -244 187 -333 227 -88 40 -301 118 -322 118 -10 0 -46 9&#xA;-80 20 -57 18 -89 20 -334 19 -212 0 -280 -4 -311 -15z m-296 -1213 c12 -8 11&#xA;-23 -7 -103 -11 -51 -33 -149 -48 -218 -14 -69 -32 -131 -39 -139 -20 -21&#xA;-110 -27 -138 -8 -23 15 -57 98 -57 141 0 25 -15 52 -22 40 -3 -5 -9 -31 -12&#xA;-59 -10 -66 -27 -123 -41 -135 -17 -14 -118 -23 -134 -11 -14 9 -150 395 -154&#xA;436 -2 18 5 20 75 23 66 2 78 0 86 -15 11 -21 38 -123 47 -175 3 -21 10 -38&#xA;15 -38 5 0 12 17 15 38 13 82 29 145 43 158 18 19 87 18 106 -1 14 -15 34 -70&#xA;56 -163 14 -53 30 -46 30 14 0 59 20 186 32 201 16 20 122 30 147 14z m294&#xA;-46 c34 -18 175 -143 188 -168 8 -14 -5 -35 -73 -112 -46 -53 -93 -98 -106&#xA;-101 -25 -7 -62 19 -62 44 0 7 29 44 65 81 36 37 65 72 65 77 0 6 -31 36 -69&#xA;67 -77 63 -94 93 -65 114 22 16 23 16 57 -2z m-1066 -16 c53 -25 106 -86 121&#xA;-138 19 -62 15 -149 -9 -198 -44 -91 -129 -129 -270 -121 -90 5 -146 36 -187&#xA;107 -23 39 -27 57 -27 126 0 93 23 148 77 188 81 59 214 75 295 36z m-433 -31&#xA;c12 -61 23 -424 14 -435 -6 -7 -32 -13 -58 -13 -43 0 -53 5 -99 46 -28 25 -65&#xA;68 -82 95 -37 57 -54 63 -45 17 3 -18 9 -61 12 -94 6 -56 5 -63 -15 -73 -12&#xA;-7 -49 -11 -84 -9 -62 3 -62 3 -74 188 -7 102 -14 199 -16 215 -7 50 7 65 62&#xA;65 39 0 56 -6 92 -34 43 -33 86 -82 123 -140 26 -41 37 -19 20 44 -17 67 -18&#xA;137 -1 143 6 3 42 6 79 6 62 1 68 -1 72 -21z m-718 -44 c15 -11 41 -37 58 -57&#xA;58 -72 44 -202 -29 -265 -36 -33 -74 -47 -148 -57 -45 -6 -48 -8 -43 -30 8&#xA;-32 -13 -46 -81 -52 -43 -4 -61 -2 -69 8 -13 17 -37 440 -26 451 12 12 149 27&#xA;234 25 60 -2 83 -7 104 -23z m-499 -33 c164 -84 161 -346 -6 -430 -92 -47&#xA;-230 -35 -301 26 -57 49 -80 101 -80 183 0 98 43 180 113 217 71 37 207 39&#xA;274 4z m-455 -106 c4 -55 12 -156 17 -225 6 -69 6 -129 2 -133 -5 -5 -36 -11&#xA;-70 -14 -85 -8 -91 -1 -91 104 0 96 -4 101 -79 87 -46 -9 -46 -9 -43 -74 2&#xA;-36 5 -72 8 -81 9 -33 -18 -49 -91 -52 -70 -2 -70 -2 -77 103 -21 288 -23 343&#xA;-13 357 8 10 29 13 80 11 70 -3 70 -3 75 -73 5 -70 5 -70 65 -70 60 0 60 0 57&#xA;73 -3 68 -2 73 20 82 13 5 48 8 78 7 55 -2 55 -2 62 -102z m-568 66 c13 -6 26&#xA;-18 28 -28 6 -26 -12 -91 -26 -96 -6 -3 -37 0 -69 6 -50 9 -60 8 -74 -6 -27&#xA;-26 -4 -39 79 -45 127 -8 163 -45 156 -158 -7 -106 -58 -142 -212 -151 -74 -4&#xA;-101 -2 -141 14 -63 23 -70 51 -27 103 30 35 30 35 80 17 31 -11 70 -17 103&#xA;-15 46 3 54 6 54 23 0 17 -14 23 -95 43 -118 28 -150 55 -157 129 -5 53 17 98&#xA;68 135 41 31 182 48 233 29z"></path>
<path d="M5455 2121 c-38 -16 -58 -50 -63 -104 -3 -43 0 -58 20 -87 63 -93&#xA;168 -44 168 78 0 91 -55 141 -125 113z"></path>
<path d="M4280 1981 c0 -85 10 -104 46 -91 35 14 64 59 64 101 0 48 -21 69&#xA;-71 69 -39 0 -39 0 -39 -79z"></path>
<path d="M3777 2019 c-25 -15 -47 -69 -47 -116 0 -80 58 -136 123 -119 48 12&#xA;83 125 56 179 -32 62 -84 84 -132 56z"></path>
</g>
</svg>