<?xml version="1.0"?>
<svg xmlns="http://www.w3.org/2000/svg" version="1.0" width="932" height="404" viewBox="0 0 932 404" preserveAspectRatio="xMidYMid meet">
<g transform="translate(0.000000,404.000000) scale(0.100000,-0.100000)" fill="#ffffff" stroke="none">
<path d="M6675 3504 c-22 -8 -67 -19 -101 -23 -90 -13 -385 -155 -549 -264 -33 -22 -127 -107 -210 -188 -219 -215 -231 -224 -309 -239 -51 -9 -76 -9 -118 0 -80 18 -106 32 -188 99 -163 132 -385 288 -475 333 -63 32 -229 90 -320 112 -103 26 -307 38 -500 31 -153 -6 -181 -10 -280 -40 -60 -18 -126 -36 -145 -40 -163 -29 -480 -239 -673 -446 -137 -147 -270 -239 -346 -239 -29 0 -130 58 -201 114 -268 214 -445 328 -620 399 -64 26 -123 47 -131 47 -9 0 -44 9 -78 20 -85 27 -431 34 -456 9 -14 -14 -15 -35 -5 -185 5 -93 19 -349 30 -569 20 -409 34 -629 50 -815 5 -58 14 -240 20 -405 6 -165 15 -309 19 -320 5 -12 46 -39 97 -64 119 -59 187 -103 253 -165 323 -301 832 -456 1278 -390 281 41 538 138 710 266 125 93 284 227 393 330 136 130 149 138 231 138 83 0 146 -30 274 -129 250 -194 549 -370 695 -410 95 -27 339 -53 495 -55 164 -1 367 33 495 84 52 21 122 48 155 61 86 33 157 77 389 244 28 19 97 81 156 138 58 57 130 122 160 144 64 48 169 88 209 80 64 -13 145 -64 306 -193 192 -154 260 -197 395 -253 52 -21 121 -51 154 -65 73 -33 147 -50 301 -70 161 -21 294 -21 302 0 5 13 -6 246 -37 788 -6 93 -17 230 -25 305 -14 132 -19 221 -30 461 -3 63 -12 249 -20 413 -9 164 -14 306 -11 315 8 26 -3 35 -78 70 -83 39 -137 76 -281 197 -131 110 -244 187 -333 227 -88 40 -301 118 -322 118 -10 0 -46 9 -80 20 -57 18 -89 20 -334 19 -212 0 -280 -4 -311 -15z"></path>
</g>
</svg>