<svg version="1.1" id="Layer_1" xmlns="http://www.w3.org/2000/svg" xmlns:xlink="http://www.w3.org/1999/xlink" x="0px" y="0px" width="100%" viewBox="0 0 720 672" enable-background="new 0 0 720 672" xml:space="preserve">
<path fill="#FFFFFF" opacity="1.000000" stroke="none" d="&#xA;M398.770691,148.174179 &#xA;&#x9;C408.501282,156.578705 417.937775,164.772827 426.214783,174.192093 &#xA;&#x9;C429.928284,178.418060 435.195923,176.913773 439.776550,177.577301 &#xA;&#x9;C466.661652,181.471558 492.987793,187.671906 516.272888,202.033615 &#xA;&#x9;C541.458679,217.567688 557.903687,241.017609 569.950134,267.612946 &#xA;&#x9;C582.007202,294.231567 588.385986,322.292694 587.024170,351.468658 &#xA;&#x9;C584.842773,398.205963 574.931580,442.887451 546.750244,481.678009 &#xA;&#x9;C518.155518,521.037537 482.929962,552.322205 436.757996,569.642944 &#xA;&#x9;C405.374023,581.416138 372.681885,586.148071 339.259857,585.174622 &#xA;&#x9;C319.351532,584.594666 299.939209,580.570312 281.384705,573.216614 &#xA;&#x9;C258.336700,564.082092 234.767380,555.930908 214.018936,541.919617 &#xA;&#x9;C188.173859,524.466614 168.608231,501.039978 151.482330,475.304169 &#xA;&#x9;C139.014847,456.568726 128.522003,436.993652 124.342941,414.628601 &#xA;&#x9;C111.864624,347.848541 130.617874,290.997711 179.085022,243.730209 &#xA;&#x9;C183.012527,239.899918 187.275848,236.391098 191.574173,232.973175 &#xA;&#x9;C193.839279,231.172012 194.753616,228.839844 195.606537,226.290466 &#xA;&#x9;C201.487549,208.712036 208.703613,191.779526 218.489853,175.927368 &#xA;&#x9;C234.663345,149.728928 258.526367,135.052307 288.069458,129.041306 &#xA;&#x9;C318.205505,122.909668 347.951691,124.045380 376.867981,135.578171 &#xA;&#x9;C384.666382,138.688446 391.783936,142.952560 398.770691,148.174179 &#xA;M159.252747,461.280823 &#xA;&#x9;C163.437317,468.099609 167.868317,474.746643 172.637039,481.178558 &#xA;&#x9;C189.061859,503.331787 207.725250,523.189026 232.139236,536.620850 &#xA;&#x9;C248.196198,545.454895 265.305237,552.133606 282.379333,558.796082 &#xA;&#x9;C300.178680,565.741394 318.479553,569.970398 337.636810,571.171387 &#xA;&#x9;C353.058472,572.138123 368.211151,570.550781 383.381958,568.623352 &#xA;&#x9;C407.005127,565.622009 429.618317,559.051636 450.919006,548.307312 &#xA;&#x9;C469.647247,538.860535 486.516296,526.708008 501.658630,512.228821 &#xA;&#x9;C522.154968,492.630188 539.800293,470.865021 552.030945,445.028748 &#xA;&#x9;C563.720093,420.336426 569.087158,394.107147 571.911682,367.125885 &#xA;&#x9;C575.021057,337.423584 571.755554,308.661346 560.623108,280.906250 &#xA;&#x9;C549.592712,253.405762 533.667114,229.511765 508.175049,213.360550 &#xA;&#x9;C493.389435,203.992722 476.551178,199.450485 459.695648,195.349701 &#xA;&#x9;C453.847412,193.926880 448.020599,191.962845 441.750305,192.265625 &#xA;&#x9;C441.874878,192.942749 441.838226,193.322174 442.003876,193.561752 &#xA;&#x9;C456.355865,214.319580 466.710541,236.908325 472.945801,261.359863 &#xA;&#x9;C473.623749,264.018555 475.336273,264.451447 477.607971,264.935028 &#xA;&#x9;C491.218933,267.832397 502.939606,274.216461 511.957031,284.906494 &#xA;&#x9;C530.829041,307.279053 539.147278,333.785553 541.199402,362.471497 &#xA;&#x9;C542.056641,374.454590 539.745300,386.330597 538.310730,398.215729 &#xA;&#x9;C534.078735,433.276855 518.022278,461.671967 488.675903,481.237640 &#xA;&#x9;C440.382782,513.435303 386.743896,523.623535 330.233643,512.506226 &#xA;&#x9;C296.126190,505.796204 264.277344,491.279999 236.121552,470.278320 &#xA;&#x9;C216.101364,455.345001 200.152924,436.746185 189.747131,413.663605 &#xA;&#x9;C173.797913,378.284332 173.053558,341.518372 179.114761,304.059814 &#xA;&#x9;C181.683182,288.186981 184.367142,272.332794 186.991470,256.469330 &#xA;&#x9;C186.828384,256.469330 186.613846,256.401978 186.510864,256.480652 &#xA;&#x9;C185.982681,256.884155 185.443390,257.286133 184.979324,257.758667 &#xA;&#x9;C147.872757,295.544647 130.491516,340.535522 135.151901,393.666168 &#xA;&#x9;C137.293045,418.076263 145.113739,440.404633 159.252747,461.280823 &#xA;M376.907074,478.577148 &#xA;&#x9;C363.782471,480.294556 351.006683,478.298218 338.447510,474.683289 &#xA;&#x9;C318.782288,469.022980 304.235596,457.483429 296.170532,438.160187 &#xA;&#x9;C290.381042,424.288910 285.370819,410.223389 282.781830,395.398956 &#xA;&#x9;C282.218689,392.174408 280.787109,389.981598 278.304565,388.007294 &#xA;&#x9;C268.850433,380.488831 260.718658,371.719269 254.039261,361.630646 &#xA;&#x9;C244.304733,346.927460 238.617828,330.941589 240.074097,313.138245 &#xA;&#x9;C241.807739,291.943573 251.154800,273.973846 264.883881,258.082581 &#xA;&#x9;C268.998230,253.320251 272.928345,252.452011 276.404602,255.488281 &#xA;&#x9;C279.835785,258.485199 279.595612,262.614532 275.391022,267.302704 &#xA;&#x9;C271.923218,271.169281 268.900330,275.355591 266.150757,279.714569 &#xA;&#x9;C253.706116,299.443359 249.379120,320.202942 259.235992,342.336395 &#xA;&#x9;C264.000549,353.035065 270.864288,362.336334 280.153259,370.812500 &#xA;&#x9;C282.396851,363.910583 282.659760,357.437531 283.600708,351.139587 &#xA;&#x9;C287.378510,325.853577 293.184204,301.194580 304.275085,277.962219 &#xA;&#x9;C312.471741,260.792511 320.586761,243.653061 334.035278,229.705887 &#xA;&#x9;C339.667725,223.864594 344.830597,217.570572 349.895538,211.835022 &#xA;&#x9;C342.738800,209.408188 333.565460,208.047638 324.403320,206.772934 &#xA;&#x9;C309.851929,204.748444 295.115570,203.472977 280.634430,206.085388 &#xA;&#x9;C254.832611,210.740051 231.792618,222.229370 210.127365,236.720108 &#xA;&#x9;C206.762604,238.970612 205.292801,241.927261 204.348419,245.586349 &#xA;&#x9;C200.190201,261.697479 197.237274,278.044525 194.770218,294.479370 &#xA;&#x9;C191.390076,316.997070 187.486053,339.499084 190.278564,362.424713 &#xA;&#x9;C193.413528,388.161682 201.430237,411.994080 217.628189,432.671204 &#xA;&#x9;C234.354187,454.022339 255.811951,468.731720 280.288910,480.159912 &#xA;&#x9;C313.455292,495.645081 347.308624,505.066498 384.448364,502.083435 &#xA;&#x9;C417.535797,499.425873 448.144470,490.070831 476.313446,472.916962 &#xA;&#x9;C495.476807,461.247223 509.357208,444.682495 517.885315,423.777466 &#xA;&#x9;C522.593445,412.236450 524.027161,399.999969 525.622375,387.812958 &#xA;&#x9;C526.786499,378.919891 527.444275,369.996765 527.204041,360.975983 &#xA;&#x9;C526.874451,348.601654 523.285461,337.015900 519.285889,325.557037 &#xA;&#x9;C514.579529,312.073120 508.141876,299.494781 497.199402,289.808289 &#xA;&#x9;C491.669739,284.913391 485.444885,281.285614 478.294128,279.655182 &#xA;&#x9;C476.925934,281.331665 477.305847,282.863708 477.550812,284.292877 &#xA;&#x9;C481.834412,309.284973 481.907623,334.301331 477.253235,359.208679 &#xA;&#x9;C470.247681,396.697510 454.444275,429.604034 426.100708,455.916626 &#xA;&#x9;C412.360565,468.672211 396.840515,477.229858 376.907074,478.577148 &#xA;M298.436676,345.864349 &#xA;&#x9;C298.222076,347.511444 298.048920,349.165222 297.785950,350.804565 &#xA;&#x9;C296.338013,359.830627 294.871399,368.839325 294.920197,378.040100 &#xA;&#x9;C294.940186,381.808899 296.291595,384.153015 299.624695,385.997864 &#xA;&#x9;C304.539948,388.718475 309.887878,389.829071 315.217499,391.053497 &#xA;&#x9;C325.358521,393.383301 335.420715,396.199066 346.634705,397.072357 &#xA;&#x9;C346.634705,394.506378 346.707153,392.385590 346.622284,390.271088 &#xA;&#x9;C346.236206,380.654205 348.033813,371.339325 351.236420,362.386383 &#xA;&#x9;C364.755341,324.593567 388.338989,295.044281 423.537292,275.198120 &#xA;&#x9;C426.178650,273.708832 428.470734,272.670380 426.418793,268.873260 &#xA;&#x9;C416.493500,250.506622 404.196625,234.156906 384.956146,224.912766 &#xA;&#x9;C365.842438,215.729553 372.041260,214.834152 355.475464,228.398346 &#xA;&#x9;C355.089600,228.714294 354.753143,229.090302 354.369629,229.409409 &#xA;&#x9;C333.391907,246.862808 322.391144,270.752991 312.038727,295.054230 &#xA;&#x9;C305.215149,311.071838 301.690002,327.984283 298.436676,345.864349 &#xA;M404.440277,172.057755 &#xA;&#x9;C393.871155,161.772995 382.708130,152.384506 368.538513,147.277695 &#xA;&#x9;C342.743469,137.980972 316.497772,137.066971 289.905823,142.981995 &#xA;&#x9;C275.125397,146.269714 261.171478,151.573349 249.404282,161.451660 &#xA;&#x9;C235.007339,173.537598 225.978775,189.430954 218.347198,206.227661 &#xA;&#x9;C216.939972,209.324890 215.032471,212.325928 214.762711,216.083099 &#xA;&#x9;C216.619858,216.334152 217.772537,215.275970 219.052277,214.640549 &#xA;&#x9;C225.464874,211.456497 231.750076,207.982010 238.303818,205.122375 &#xA;&#x9;C259.544678,195.854340 281.364380,189.183411 304.994751,190.906387 &#xA;&#x9;C323.108734,192.227188 341.127136,194.242859 358.530273,199.610825 &#xA;&#x9;C364.444885,201.435165 369.023041,200.956055 374.199921,197.393524 &#xA;&#x9;C385.470123,189.637833 398.130707,184.484940 411.253601,179.914276 &#xA;&#x9;C409.874878,176.457321 407.067993,174.783386 404.440277,172.057755 &#xA;M404.880829,305.395813 &#xA;&#x9;C393.551483,315.664307 384.250885,327.588806 376.484985,340.699738 &#xA;&#x9;C366.859375,356.950378 359.973450,374.055573 360.234314,393.429901 &#xA;&#x9;C360.290802,397.622345 361.748077,398.669800 365.728485,398.924438 &#xA;&#x9;C387.171600,400.296143 404.258911,391.988312 418.300446,376.259308 &#xA;&#x9;C420.502808,373.792328 420.614532,372.003876 418.721863,369.349152 &#xA;&#x9;C415.230164,364.451599 411.509338,359.778473 407.390076,355.399628 &#xA;&#x9;C404.034729,351.832825 403.722656,347.501892 406.465363,344.744812 &#xA;&#x9;C409.348846,341.846222 413.254486,342.096741 417.098206,345.591278 &#xA;&#x9;C418.692535,347.040802 420.004395,348.796082 421.535004,350.321777 &#xA;&#x9;C424.429962,353.207581 426.405396,356.961945 430.534424,360.029694 &#xA;&#x9;C430.896149,359.259216 431.165161,358.633972 431.477722,358.031372 &#xA;&#x9;C432.166962,356.702545 432.939362,355.413666 433.571198,354.058746 &#xA;&#x9;C443.440796,332.894684 441.874176,311.423309 435.330627,289.797272 &#xA;&#x9;C434.345551,286.541626 432.770111,286.057953 429.840149,287.673981 &#xA;&#x9;C421.047516,292.523499 412.833313,298.154022 404.880829,305.395813 &#xA;M351.803192,463.652771 &#xA;&#x9;C369.571136,466.019348 386.987396,466.217834 403.214783,456.019501 &#xA;&#x9;C401.316895,453.942352 399.552704,454.376038 397.946014,454.348694 &#xA;&#x9;C386.330353,454.151184 376.188538,450.202606 367.437317,442.575073 &#xA;&#x9;C359.170929,435.370117 353.886505,426.259949 350.340790,416.029327 &#xA;&#x9;C349.494781,413.588196 348.612885,411.636475 345.416138,411.265350 &#xA;&#x9;C335.842163,410.153809 326.450195,407.968323 317.070374,405.777313 &#xA;&#x9;C311.029480,404.366211 304.985321,402.969116 298.254059,401.405823 &#xA;&#x9;C301.007721,413.195862 305.076874,423.475952 309.466614,433.705048 &#xA;&#x9;C315.258759,447.201965 325.403687,455.556396 338.961853,460.192993 &#xA;&#x9;C342.882751,461.533844 346.946960,462.455536 351.803192,463.652771 &#xA;M387.357056,205.653076 &#xA;&#x9;C386.495209,206.504898 384.749115,206.655991 385.121368,208.695557 &#xA;&#x9;C386.153717,209.310822 387.241425,210.074936 388.422546,210.645798 &#xA;&#x9;C408.959625,220.571701 423.618073,236.533691 435.088318,255.838364 &#xA;&#x9;C437.278839,259.525085 438.216675,265.166931 441.894226,266.426605 &#xA;&#x9;C445.444611,267.642700 450.192352,265.243469 454.437927,264.586426 &#xA;&#x9;C458.015717,264.032745 459.034973,262.637329 457.942749,258.827972 &#xA;&#x9;C451.346436,235.822052 440.740356,214.901581 426.326141,195.824417 &#xA;&#x9;C423.808807,192.492706 421.223907,191.800140 417.333038,192.908173 &#xA;&#x9;C407.017609,195.845749 397.368744,200.268997 387.357056,205.653076 &#xA;M431.858856,395.591156 &#xA;&#x9;C430.814728,392.676300 430.227234,389.537842 427.649445,386.697052 &#xA;&#x9;C410.830597,405.426575 389.830536,414.135895 364.783997,413.148743 &#xA;&#x9;C371.077301,432.658813 388.808777,445.313904 410.105316,438.879456 &#xA;&#x9;C422.135193,435.244781 432.655609,429.202850 435.228577,415.313690 &#xA;&#x9;C436.448578,408.727875 434.084564,402.508911 431.858856,395.591156 &#xA;M445.004242,390.717865 &#xA;&#x9;C446.075043,394.303925 447.145874,397.889984 448.459320,402.288513 &#xA;&#x9;C449.430664,400.642639 450.004028,399.854645 450.393799,398.984406 &#xA;&#x9;C466.297394,363.475433 470.071869,326.483673 464.135834,288.237396 &#xA;&#x9;C462.300537,276.412506 463.779144,277.496490 450.901550,279.518524 &#xA;&#x9;C448.126495,279.954285 446.832916,281.244446 448.018951,284.379639 &#xA;&#x9;C449.249084,287.631409 450.071228,291.052032 450.889374,294.442810 &#xA;&#x9;C456.262817,316.712280 456.094727,338.633759 446.279266,359.806335 &#xA;&#x9;C443.980438,364.765076 439.223694,369.365601 438.996124,374.288025 &#xA;&#x9;C438.758728,379.422028 442.626709,384.745789 445.004242,390.717865 &#xA;z"></path>
</svg>